<svg version="1.1" id="Layer_1" xmlns="http://www.w3.org/2000/svg" xmlns:xlink="http://www.w3.org/1999/xlink" x="0px" y="0px"
	 width="100%" viewBox="0 0 225 225" enable-background="new 0 0 225 225" xml:space="preserve">
<path fill="#FDFDFD" opacity="1.000000" stroke="none" 
	d="
M57.000000,1.000000 
	C60.030594,1.000000 63.061188,1.000000 66.280060,1.364622 
	C75.681068,4.763584 84.880936,7.838432 94.124832,10.774689 
	C95.139839,11.097097 96.415657,10.679711 97.556793,10.512056 
	C161.596710,1.103334 218.767410,50.642883 217.837524,115.338531 
	C217.680862,126.238518 217.271759,136.662277 222.808716,146.470215 
	C223.753876,148.144424 223.797867,150.310532 224.431625,152.190933 
	C224.566574,152.591339 225.457413,152.736984 226.000000,153.000000 
	C226.000000,160.354248 226.000000,167.708496 225.673477,175.227905 
	C224.976288,175.893387 224.404068,176.343109 224.263916,176.901337 
	C217.921875,202.160614 202.155838,217.944504 176.868683,224.251007 
	C176.145386,224.431396 175.618484,225.399307 175.000000,226.000000 
	C168.312363,226.000000 161.624710,226.000000 154.720276,225.649109 
	C147.428406,222.598343 140.383774,219.812866 133.250198,217.277649 
	C131.969177,216.822357 130.307785,217.305481 128.844757,217.514435 
	C112.613350,219.832809 96.688141,218.593933 81.123817,213.369675 
	C32.636871,197.094742 3.438359,150.523956 9.790471,99.815628 
	C10.063527,97.635849 9.708002,95.214622 9.022136,93.108841 
	C7.182683,87.461243 5.044306,81.908615 2.904397,76.364677 
	C2.669266,75.755516 1.653632,75.447624 1.000000,75.000000 
	C1.000000,67.645752 1.000000,60.291500 1.326294,52.772285 
	C2.032764,52.106358 2.620363,51.658222 2.763354,51.096844 
	C9.788582,23.515821 27.423094,7.524102 55.393768,2.716414 
	C56.009335,2.610608 56.468094,1.592525 57.000000,1.000000 
M135.190674,102.173454 
	C125.567513,99.618591 115.921196,97.146446 106.333771,94.463867 
	C102.989929,93.528259 99.666924,92.328217 96.550423,90.806534 
	C88.058678,86.660263 86.862076,78.118912 93.875153,71.692390 
	C95.544334,70.162819 97.681442,68.894646 99.827583,68.176125 
	C111.840004,64.154373 123.144196,65.643387 133.360962,73.317215 
	C137.615067,76.512482 141.442627,80.283485 145.748108,83.400436 
	C151.113831,87.284958 157.075058,87.011162 162.798630,84.282631 
	C168.555466,81.538239 170.020859,76.385735 169.370667,70.445992 
	C168.402847,61.604637 162.498840,56.235973 155.596695,51.942253 
	C138.171738,41.102459 118.886574,38.661839 98.915787,40.567036 
	C89.351639,41.479450 80.487053,44.877171 72.749268,50.789402 
	C49.260761,68.736328 52.450500,103.278358 78.978600,115.933464 
	C85.362442,118.978844 92.326996,120.877052 99.130203,122.957016 
	C109.754700,126.205254 120.584274,128.818848 131.098816,132.375748 
	C136.584686,134.231522 141.110321,138.024765 141.252655,144.670975 
	C141.401352,151.614639 137.451355,156.133804 131.737427,159.336731 
	C122.195557,164.685394 103.100471,165.506241 92.439629,153.780121 
	C88.188667,149.104385 83.727661,144.565521 78.955132,140.434738 
	C74.933952,136.954269 70.086571,136.010864 64.977974,138.472641 
	C59.821831,140.957336 58.031467,145.388260 57.989777,150.724930 
	C57.974350,152.698959 58.240688,154.719009 58.690254,156.645325 
	C60.720833,165.346008 66.446495,171.415161 73.820023,175.642532 
	C95.484604,188.063156 118.538208,190.282959 142.192062,182.748230 
	C155.607330,178.474899 165.947754,169.810440 170.650345,156.057022 
	C176.904358,137.766159 173.237183,120.432457 155.187241,110.466553 
	C149.143570,107.129669 142.369354,105.115891 135.190674,102.173454 
z"/>
<path fill="#020202" opacity="1.000000" stroke="none" 
	d="
M226.000000,152.531342 
	C225.457413,152.736984 224.566574,152.591339 224.431625,152.190933 
	C223.797867,150.310532 223.753876,148.144424 222.808716,146.470215 
	C217.271759,136.662277 217.680862,126.238518 217.837524,115.338531 
	C218.767410,50.642883 161.596710,1.103334 97.556793,10.512056 
	C96.415657,10.679711 95.139839,11.097097 94.124832,10.774689 
	C84.880936,7.838432 75.681068,4.763584 66.734161,1.364622 
	C119.925362,1.000000 172.850723,1.000000 226.000000,1.000000 
	C226.000000,51.354008 226.000000,101.708344 226.000000,152.531342 
z"/>
<path fill="#010101" opacity="1.000000" stroke="none" 
	d="
M1.000000,75.468658 
	C1.653632,75.447624 2.669266,75.755516 2.904397,76.364677 
	C5.044306,81.908615 7.182683,87.461243 9.022136,93.108841 
	C9.708002,95.214622 10.063527,97.635849 9.790471,99.815628 
	C3.438359,150.523956 32.636871,197.094742 81.123817,213.369675 
	C96.688141,218.593933 112.613350,219.832809 128.844757,217.514435 
	C130.307785,217.305481 131.969177,216.822357 133.250198,217.277649 
	C140.383774,219.812866 147.428406,222.598343 154.251740,225.649109 
	C103.073479,226.000000 52.146954,226.000000 1.000000,226.000000 
	C1.000000,175.979324 1.000000,125.958321 1.000000,75.468658 
z"/>
<path fill="#020202" opacity="1.000000" stroke="none" 
	d="
M56.531342,1.000000 
	C56.468094,1.592525 56.009335,2.610608 55.393768,2.716414 
	C27.423094,7.524102 9.788582,23.515821 2.763354,51.096844 
	C2.620363,51.658222 2.032764,52.106358 1.326294,52.303661 
	C1.000000,35.069805 1.000000,18.139614 1.000000,1.000000 
	C19.353697,1.000000 37.708191,1.000000 56.531342,1.000000 
z"/>
<path fill="#020202" opacity="1.000000" stroke="none" 
	d="
M175.468658,226.000000 
	C175.618484,225.399307 176.145386,224.431396 176.868683,224.251007 
	C202.155838,217.944504 217.921875,202.160614 224.263916,176.901337 
	C224.404068,176.343109 224.976288,175.893387 225.673477,175.696533 
	C226.000000,192.594147 226.000000,209.188278 226.000000,226.000000 
	C209.313065,226.000000 192.625198,226.000000 175.468658,226.000000 
z"/>
<path fill="#020202" opacity="1.000000" stroke="none" 
	d="
M135.559875,102.335388 
	C142.369354,105.115891 149.143570,107.129669 155.187241,110.466553 
	C173.237183,120.432457 176.904358,137.766159 170.650345,156.057022 
	C165.947754,169.810440 155.607330,178.474899 142.192062,182.748230 
	C118.538208,190.282959 95.484604,188.063156 73.820023,175.642532 
	C66.446495,171.415161 60.720833,165.346008 58.690254,156.645325 
	C58.240688,154.719009 57.974350,152.698959 57.989777,150.724930 
	C58.031467,145.388260 59.821831,140.957336 64.977974,138.472641 
	C70.086571,136.010864 74.933952,136.954269 78.955132,140.434738 
	C83.727661,144.565521 88.188667,149.104385 92.439629,153.780121 
	C103.100471,165.506241 122.195557,164.685394 131.737427,159.336731 
	C137.451355,156.133804 141.401352,151.614639 141.252655,144.670975 
	C141.110321,138.024765 136.584686,134.231522 131.098816,132.375748 
	C120.584274,128.818848 109.754700,126.205254 99.130203,122.957016 
	C92.326996,120.877052 85.362442,118.978844 78.978600,115.933464 
	C52.450500,103.278358 49.260761,68.736328 72.749268,50.789402 
	C80.487053,44.877171 89.351639,41.479450 98.915787,40.567036 
	C118.886574,38.661839 138.171738,41.102459 155.596695,51.942253 
	C162.498840,56.235973 168.402847,61.604637 169.370667,70.445992 
	C170.020859,76.385735 168.555466,81.538239 162.798630,84.282631 
	C157.075058,87.011162 151.113831,87.284958 145.748108,83.400436 
	C141.442627,80.283485 137.615067,76.512482 133.360962,73.317215 
	C123.144196,65.643387 111.840004,64.154373 99.827583,68.176125 
	C97.681442,68.894646 95.544334,70.162819 93.875153,71.692390 
	C86.862076,78.118912 88.058678,86.660263 96.550423,90.806534 
	C99.666924,92.328217 102.989929,93.528259 106.333771,94.463867 
	C115.921196,97.146446 125.567513,99.618591 135.559875,102.335388 
z"/>
</svg>